<?xml version="1.0" encoding="UTF-8"?>
<svg width="800px" height="800px" viewBox="0 0 24 24" version="1.1" xmlns="http://www.w3.org/2000/svg">
    <title>AI CRM Pro</title>
    <defs>
        <linearGradient id="primaryGradient" x1="0%" y1="0%" x2="100%" y2="100%">
            <stop offset="0%" stop-color="#1976d2" />
            <stop offset="100%" stop-color="#0d47a1" />
        </linearGradient>
        <linearGradient id="secondaryGradient" x1="0%" y1="0%" x2="100%" y2="100%">
            <stop offset="0%" stop-color="#7b1fa2" />
            <stop offset="100%" stop-color="#4a148c" />
        </linearGradient>
        <filter id="shadow" x="-20%" y="-20%" width="140%" height="140%">
            <feDropShadow dx="0" dy="1" stdDeviation="1" flood-color="#000" flood-opacity="0.3" />
        </filter>
    </defs>
    <g stroke="none" stroke-width="1" fill="none" fill-rule="evenodd">
        <!-- 背景圆形 -->
        <circle fill="url(#primaryGradient)" cx="12" cy="12" r="11" filter="url(#shadow)" />
        
        <!-- 六边形网格图案 - 代表数据和连接 -->
        <path d="M12,5 L16,7.5 L16,12.5 L12,15 L8,12.5 L8,7.5 Z" stroke="#ffffff" stroke-width="0.5" fill="#ffffff" fill-opacity="0.1" />
        
        <!-- 字母C - 代表CRM -->
        <path d="M8,9 C8,7.34314575 9.34314575,6 11,6 C12.6568542,6 14,7.34314575 14,9" stroke="#ffffff" stroke-width="1.8" stroke-linecap="round" />
        
        <!-- 字母R - 代表Relationship -->
        <path d="M8,12 L8,18 M8,15 C8,13.8954305 8.8954305,13 10,13 C11.1045695,13 12,13.8954305 12,15 L12,15 C12,16.1045695 11.1045695,17 10,17 L8,17" stroke="#ffffff" stroke-width="1.8" stroke-linecap="round" stroke-linejoin="round" />
        
        <!-- 字母M - 代表Management -->
        <path d="M13,13 L13,18 M13,15 L14.5,13 L16,15 M16,13 L16,18" stroke="#ffffff" stroke-width="1.8" stroke-linecap="round" stroke-linejoin="round" />
        
        <!-- AI元素 - 电路板样式的点和线 -->
        <circle fill="url(#secondaryGradient)" cx="18" cy="6" r="1.5" />
        <circle fill="#ffffff" cx="18" cy="6" r="0.5" />
        <path d="M18,7.5 L18,9" stroke="#ffffff" stroke-width="0.8" stroke-linecap="round" />
        <path d="M16.5,6 L15,6" stroke="#ffffff" stroke-width="0.8" stroke-linecap="round" />
        <path d="M19.5,6 L21,6" stroke="#ffffff" stroke-width="0.8" stroke-linecap="round" />
    </g>
</svg>